<svg xmlns="http://www.w3.org/2000/svg" width="43.772" height="31" viewBox="0 0 43.772 31">
  <g id="Group_8298" data-name="Group 8298" transform="translate(-1083.115 -333)">
    <path id="Vector" d="M0,8.039H14.664V0H0Zm5.129-5.3H9.536a1.284,1.284,0,0,1,0,2.567H5.129a1.284,1.284,0,0,1,0-2.567Z" transform="translate(1097.668 348.259)" fill="#fff"/>
    <path id="Vector-2" data-name="Vector" d="M43.351.333a1.284,1.284,0,0,0-1.813.088l-6.47,7.136H8.7L2.234.421a1.284,1.284,0,0,0-1.9,1.725l6.519,7.19V28a3,3,0,0,0,3,3H33.925a3,3,0,0,0,3-3V9.336l6.519-7.19A1.284,1.284,0,0,0,43.351.333ZM31.786,24.582A1.284,1.284,0,0,1,30.5,25.865H13.27a1.284,1.284,0,0,1-1.284-1.284V13.975a1.284,1.284,0,0,1,1.284-1.284H30.5a1.284,1.284,0,0,1,1.284,1.284Z" transform="translate(1083.115 333)" fill="#fff"/>
  </g>
</svg>
