<svg xmlns="http://www.w3.org/2000/svg" width="32.25" height="35.833" viewBox="0 0 32.25 35.833">
  <path id="Vector" d="M26.875,26.875H5.375V23.292h21.5Zm0-7.167H5.375V16.125h21.5Zm0-7.167H5.375V8.958h21.5ZM0,35.833l2.688-2.687,2.688,2.688,2.688-2.687,2.688,2.688,2.688-2.687,2.688,2.688,2.688-2.687L21.5,35.833l2.688-2.687,2.688,2.688,2.688-2.687,2.688,2.688V0L29.563,2.688,26.875,0,24.188,2.688,21.5,0,18.813,2.688,16.125,0,13.438,2.688,10.75,0,8.063,2.688,5.375,0,2.688,2.688,0,0Z" fill="#fff"/>
</svg>
